<svg xmlns="http://www.w3.org/2000/svg" viewBox="0 0 400 270" role="img" aria-label="new-M05-L01-contact" data-diagram="new-M05-L01-contact" style="font-family:Cairo, sans-serif"><rect width="400" height="270" rx="18" fill="#f6faf8"></rect><rect x="48" y="36" width="16" height="137" fill="#c2acda" stroke="#387b83" rx="4"></rect><rect x="64" y="105" width="99" height="17" fill="#9be3c4" stroke="#387b83" rx="4"></rect><path d="M 246 36 L 266 36 L 266 102 L 248 102 L 248 122 L 266 122 L 266 173 L 246 173 Z" fill="#c2acda" stroke="#387b83" stroke-width="2"></path><rect x="248" y="105" width="108" height="17" fill="#9be3c4" stroke="#387b83" rx="4"></rect><line x1="115" y1="61" x2="115" y2="92" stroke="#bb3842" stroke-width="2"></line><path d="M 109 84 L 115 92 L 121 84" fill="none" stroke="#bb3842" stroke-width="2"></path><line x1="307" y1="61" x2="307" y2="92" stroke="#bb3842" stroke-width="2"></line><path d="M 301 84 L 307 92 L 313 84" fill="none" stroke="#bb3842" stroke-width="2"></path><text x="111" y="205" font-size="16" fill="#203f45" text-anchor="middle" direction="ltr">Butt interface</text><text x="302" y="205" font-size="16" fill="#203f45" text-anchor="middle" direction="ltr">Housing</text><text x="200" y="249" font-size="13" fill="#203f45" text-anchor="middle" direction="ltr">Interface geometry, not capacity</text></svg>